<?xml version="1.0" standalone="no"?>
<!DOCTYPE svg PUBLIC "-//W3C//DTD SVG 20010904//EN"
 "http://www.w3.org/TR/2001/REC-SVG-20010904/DTD/svg10.dtd">
<svg version="1.0" xmlns="http://www.w3.org/2000/svg"
 width="1024.000000pt" height="1024.000000pt" viewBox="0 0 1024.000000 1024.000000"
 preserveAspectRatio="xMidYMid meet">

<g transform="translate(0.000000,1024.000000) scale(0.100000,-0.100000)"
fill="#000000" stroke="none">
<path d="M9699 9745 c-3 -3 -2068 -5 -4590 -5 -2521 0 -4590 -4 -4597 -9 -12
-7 -13 -225 -10 -1305 l4 -1297 509 -507 c281 -279 635 -628 788 -776 153
-148 290 -284 304 -302 21 -28 24 -40 19 -70 -4 -19 -11 -34 -16 -32 -7 3
-245 212 -260 228 -3 4 -117 109 -255 234 -137 126 -437 415 -665 642 -228
228 -418 417 -423 420 -4 4 -7 -401 -7 -899 l0 -907 208 0 c227 -1 585 -11
1132 -35 195 -8 366 -15 380 -15 l25 0 -3 181 c-4 272 38 607 103 809 13 41
47 147 76 235 88 275 89 278 89 488 0 219 11 308 50 393 87 194 253 343 512
462 4 2 -30 -35 -77 -82 -57 -59 -94 -107 -116 -151 -18 -36 -29 -68 -26 -71
3 -3 23 14 44 38 248 282 491 450 878 608 398 162 726 229 1065 217 181 -7
270 -19 585 -78 115 -22 264 -44 330 -48 124 -8 222 -36 320 -90 37 -20 38
-22 10 -16 -68 12 -175 17 -175 8 0 -5 20 -19 45 -31 25 -12 64 -34 87 -49 24
-15 77 -41 118 -58 185 -77 271 -134 474 -316 80 -72 91 -78 198 -113 133 -45
202 -77 242 -114 47 -45 103 -134 151 -243 54 -124 128 -227 208 -289 51 -40
64 -58 108 -150 28 -58 91 -186 141 -285 107 -215 147 -309 188 -452 60 -211
72 -309 75 -620 1 -154 0 -285 -4 -290 -13 -19 -56 -43 -78 -43 -54 0 -13 -43
62 -64 51 -16 85 -44 85 -73 0 -9 -7 -10 -23 -4 -13 5 -56 9 -97 8 -69 -1 -72
-2 -49 -17 13 -8 34 -25 47 -37 21 -21 22 -24 7 -52 -8 -16 -12 -36 -9 -44 5
-14 -15 -41 -38 -50 -19 -8 10 -26 42 -28 60 -3 86 14 56 37 -35 25 -20 115
16 102 16 -7 72 -174 69 -208 -1 -14 8 -47 19 -73 34 -76 67 -197 87 -314 14
-85 18 -163 18 -363 0 -247 -9 -348 -51 -598 -5 -34 -5 -34 28 -27 18 4 46 13
62 21 15 7 50 17 77 20 49 7 49 6 40 -17 -39 -101 -50 -117 -81 -124 -23 -5
-34 -3 -43 9 -11 15 -47 16 -327 14 l-315 -3 -16 -60 c-54 -193 -111 -407
-140 -522 -19 -73 -36 -127 -40 -120 -4 7 -12 37 -18 67 -7 30 -44 184 -83
343 l-71 287 -518 0 c-285 0 -520 3 -522 8 -10 14 23 87 48 109 33 29 88 45
304 88 213 43 449 104 591 151 223 74 435 198 548 318 59 63 162 208 162 228
0 6 -32 -20 -71 -56 -126 -120 -233 -182 -368 -217 -84 -22 -261 -37 -261 -23
0 5 38 33 85 62 146 92 391 306 473 414 58 77 166 223 199 271 30 43 36 47 73
47 38 0 41 2 34 23 -11 37 -24 46 -88 66 -74 23 -198 36 -541 56 -143 9 -343
25 -445 35 -349 37 -416 41 -701 49 -202 6 -311 5 -372 -3 -48 -7 -89 -15 -92
-18 -9 -9 68 -18 255 -28 170 -9 333 -28 610 -69 391 -59 637 -80 965 -86 143
-2 271 -7 283 -11 22 -6 14 -17 -105 -136 -148 -150 -335 -312 -443 -385 -215
-146 -545 -304 -837 -402 -274 -91 -890 -233 -1158 -266 -156 -20 -468 -19
-648 0 -163 18 -627 107 -862 166 -535 134 -793 246 -1019 444 -71 61 -79 65
-111 59 -19 -3 -35 -10 -35 -15 0 -14 122 -131 188 -182 177 -135 430 -256
737 -352 306 -95 675 -185 1050 -255 354 -66 595 -134 595 -166 0 -8 -1 -15
-2 -16 -2 -1 -95 -4 -208 -7 l-205 -6 -32 -117 c-33 -123 -109 -446 -193 -821
-28 -122 -63 -279 -79 -349 -16 -70 -37 -174 -47 -232 l-18 -106 -63 0 -63 0
0 433 c0 239 -3 630 -7 870 l-6 437 -336 -2 -336 -3 -5 -100 -5 -100 -19 28
c-29 43 -159 143 -228 175 -88 41 -159 56 -263 56 -146 0 -265 -40 -388 -128
-103 -73 -235 -231 -253 -302 -5 -19 -10 -17 -58 30 -28 28 -69 62 -89 76 -21
14 -40 35 -43 47 -14 54 30 357 81 563 52 205 115 356 209 497 39 58 44 62 88
68 l48 7 -26 31 c-129 158 -234 325 -264 419 -6 21 -15 40 -20 43 -13 8 -99
-37 -195 -101 -119 -79 -392 -315 -680 -588 -283 -269 -810 -804 -936 -950
l-34 -39 -3 -1154 -3 -1153 4623 2 4623 3 -2 390 c-1 215 -2 815 -3 1335 l0
946 -44 34 c-24 19 -81 67 -127 106 -287 242 -951 761 -1316 1029 -57 41 -103
79 -103 83 0 5 -25 34 -55 65 -93 95 -20 67 214 -83 328 -210 559 -383 1196
-894 121 -96 226 -176 233 -176 9 0 12 177 12 852 l0 851 -477 -6 c-263 -4
-639 -12 -837 -18 -301 -10 -360 -9 -367 2 -13 20 -11 77 3 85 6 4 66 9 132
10 67 2 297 9 512 15 215 6 534 14 710 18 l319 6 2 923 c2 507 -1 922 -5 922
-5 0 -46 -39 -92 -87 -80 -84 -130 -137 -315 -333 -275 -293 -1035 -1069
-1129 -1152 -122 -108 -126 -110 -126 -56 0 48 -30 12 419 492 108 115 207
221 220 235 13 14 92 96 175 181 126 129 315 328 442 466 45 49 222 241 298
324 38 41 79 85 92 97 l24 22 2 1275 c2 968 0 1276 -9 1276 -6 0 -18 2 -25 5
-8 3 -16 3 -19 0z m-7551 -748 c35 -13 71 -30 80 -38 9 -8 21 -15 25 -16 29
-6 96 -47 90 -55 -3 -7 -1 -8 5 -4 15 9 73 -34 65 -47 -4 -6 0 -8 10 -4 8 3
21 -1 28 -9 10 -12 9 -13 -7 -8 -10 4 -16 3 -11 -1 4 -5 17 -9 30 -10 12 -2
21 -8 19 -14 -1 -6 1 -10 5 -9 16 5 55 -30 47 -43 -5 -9 -2 -11 9 -6 22 8 50
-38 43 -69 -4 -14 -11 -22 -16 -19 -5 3 -8 -3 -7 -14 1 -11 3 -18 5 -16 3 2
14 -1 25 -7 20 -10 20 -11 2 -24 -22 -16 -12 -19 15 -4 23 12 60 -6 61 -30 0
-9 2 -11 5 -3 6 13 89 -27 109 -52 6 -6 15 -12 20 -13 11 -1 115 -62 115 -68
0 -2 -8 -1 -17 2 -17 5 -17 5 0 -6 9 -6 22 -8 27 -5 6 3 10 -1 10 -9 0 -9 7
-16 15 -16 8 0 15 -6 15 -13 0 -8 9 -22 20 -32 11 -10 20 -13 20 -7 0 6 -8 15
-17 21 -10 5 -15 12 -12 15 3 4 17 -4 30 -16 14 -13 42 -36 62 -51 21 -16 35
-32 32 -37 -3 -4 2 -11 11 -14 10 -4 13 -2 8 7 -7 11 37 -24 61 -49 5 -6 25
-21 43 -34 33 -22 56 -61 54 -90 -1 -10 0 -11 4 -2 9 19 24 14 24 -7 0 -18 27
-37 38 -26 3 3 0 5 -7 5 -6 0 -16 11 -21 25 -5 14 -15 25 -21 25 -7 0 -10 3
-6 6 8 9 178 -137 171 -147 -3 -5 1 -9 8 -9 7 0 -4 -9 -24 -19 -22 -13 -48
-18 -69 -16 -24 3 -30 2 -19 -5 13 -9 13 -10 0 -10 -13 0 -13 -1 0 -10 8 -5
10 -10 5 -10 -6 0 -35 -16 -64 -35 -50 -32 -55 -33 -67 -17 -12 15 -13 15 -8
-4 4 -16 -2 -27 -24 -43 -17 -11 -35 -21 -42 -21 -6 0 -8 -5 -4 -12 5 -8 2 -9
-10 -5 -9 4 -14 3 -11 -2 3 -5 1 -12 -4 -15 -5 -4 -12 2 -14 11 -4 15 -5 14
-6 -3 0 -12 -9 -28 -18 -35 -15 -12 -16 -12 -10 3 3 10 2 20 -2 23 -5 2 -12
-5 -15 -18 -7 -21 -7 -21 -16 -2 -7 17 -9 17 -9 3 -1 -10 -8 -18 -16 -18 -8 0
-15 -5 -15 -11 0 -5 -5 -7 -10 -4 -6 4 -17 1 -25 -5 -8 -6 -19 -9 -25 -5 -5 3
-10 -1 -10 -9 0 -10 -6 -13 -17 -9 -12 5 -14 3 -8 -7 6 -10 4 -12 -8 -7 -10 3
-17 2 -17 -3 0 -6 -7 -10 -15 -10 -8 0 -15 -4 -15 -8 0 -4 -13 -16 -30 -25
-16 -10 -30 -16 -30 -14 0 3 -16 -10 -37 -29 -20 -18 -40 -31 -45 -28 -5 3 -7
0 -6 -7 2 -6 -3 -14 -10 -16 -7 -3 -10 1 -7 9 4 10 -2 14 -19 13 -29 0 -41
-10 -31 -25 6 -9 10 -9 16 1 4 7 12 10 16 5 4 -5 2 -11 -5 -13 -6 -3 -9 -9 -6
-14 3 -6 -14 -32 -38 -58 -72 -81 -103 -122 -100 -132 1 -6 -2 -8 -8 -4 -7 4
-7 13 1 26 13 25 6 46 -31 89 -16 19 -30 40 -30 46 0 7 -7 14 -15 18 -8 3 -15
11 -15 18 0 9 3 8 10 -2 9 -13 10 -13 9 0 0 8 -4 24 -9 35 -8 20 -9 20 -9 0
-1 -19 -1 -19 -15 1 -8 11 -16 29 -18 39 -1 11 -7 23 -11 26 -9 6 -15 30 -16
64 -1 15 -3 17 -10 7 -7 -11 -10 -10 -15 3 -3 9 -3 22 1 27 3 7 1 8 -5 4 -15
-9 -34 37 -26 61 4 14 3 15 -4 5 -7 -11 -10 -11 -15 2 -3 8 -2 18 3 21 6 4 9
14 9 23 -1 15 -2 15 -6 0 -7 -27 -18 -22 -36 17 -15 32 -15 34 1 28 11 -4 10
0 -5 11 -12 9 -27 33 -33 54 -7 20 -20 56 -31 80 -33 72 -86 219 -114 312 -2
7 -14 37 -30 80 -73 189 -157 531 -149 608 2 15 11 33 21 40 26 19 145 8 221
-21z m-836 -3340 c62 -30 203 -105 313 -167 110 -62 264 -145 343 -183 l142
-69 0 -39 c0 -22 -3 -39 -6 -39 -28 0 -452 217 -649 333 -66 38 -159 93 -207
121 -80 47 -101 70 -81 89 13 13 34 6 145 -46z m7953 3 c25 -40 -501 -296
-833 -405 -112 -37 -335 -94 -344 -88 -14 8 -9 23 10 30 9 3 87 36 172 73 85
37 196 84 245 105 50 20 158 67 240 103 156 67 471 190 492 191 6 1 14 -3 18
-9z m-380 -775 c254 -15 437 -30 503 -41 40 -8 43 -34 6 -63 -33 -26 -130 -28
-391 -7 -98 8 -315 22 -483 30 -168 9 -338 19 -377 22 l-73 6 0 40 0 41 277
-7 c153 -3 395 -13 538 -21z m-495 -210 c304 -51 854 -190 877 -221 28 -39 9
-84 -35 -84 -13 0 -110 25 -216 55 -291 83 -562 150 -761 190 -99 19 -184 40
-189 45 -45 45 107 52 324 15z m-2760 -1962 c0 -182 -4 -314 -10 -323 -8 -13
-10 -13 -10 0 0 23 -129 428 -162 508 l-30 72 -73 0 c-68 0 -73 1 -68 20 5 20
8 21 276 28 l77 2 0 -307z m-2418 257 c159 -49 281 -196 347 -415 34 -114 51
-238 61 -435 19 -403 -33 -772 -135 -946 -39 -67 -121 -147 -183 -178 -137
-69 -313 -74 -445 -11 -71 33 -164 119 -220 202 l-45 68 14 85 c20 121 29 527
15 675 -6 66 -23 176 -37 245 -40 196 -43 226 -27 305 41 200 178 352 368 406
84 24 207 24 287 -1z m3202 -30 c97 -16 179 -61 262 -144 84 -84 124 -157 150
-275 52 -235 -61 -559 -236 -672 -28 -18 -49 -37 -47 -43 2 -6 27 -17 56 -25
52 -14 86 -11 142 13 12 5 18 0 23 -20 4 -15 48 -122 98 -238 253 -588 318
-741 318 -751 0 -13 -387 -20 -406 -7 -15 9 -131 229 -248 467 -51 105 -107
209 -125 232 -34 47 -85 77 -148 88 l-43 7 0 -401 0 -401 -85 0 c-76 0 -85 2
-85 19 0 27 -56 239 -167 631 l-97 345 -4 587 -3 587 28 4 c58 9 560 6 617 -3z
m1641 -32 c-31 -140 -401 -1468 -472 -1692 -19 -61 -45 -145 -58 -186 -12 -41
-36 -113 -51 -160 l-29 -85 -56 -3 -56 -3 -41 93 c-22 51 -86 194 -142 318
-171 378 -211 470 -265 604 l-52 129 43 86 c66 132 88 230 87 381 -1 101 -5
140 -25 205 -31 107 -85 200 -154 269 l-56 56 165 0 c120 0 167 -3 175 -12 14
-19 79 -281 177 -717 47 -212 90 -391 94 -399 13 -22 17 -8 56 169 20 90 65
274 100 409 35 135 80 313 100 395 19 83 37 156 40 163 3 9 56 12 215 12 l212
0 -7 -32z m-3923 -845 l3 -868 273 -3 272 -2 0 -285 0 -285 -195 0 -195 0 0
75 0 75 -307 0 -306 0 7 337 c3 186 11 439 17 563 5 124 10 455 11 735 0 281
3 513 5 518 2 4 96 7 209 7 l204 0 2 -867z m4606 655 l-3 -203 -233 -3 -232
-2 2 -218 3 -217 175 0 175 0 0 -190 0 -190 -177 -3 -178 -2 0 -230 0 -230
234 0 c142 0 237 -4 241 -10 3 -5 3 -109 -1 -230 l-7 -220 -447 0 -447 0 -7
422 -7 423 80 280 c148 519 271 960 277 993 l7 32 273 0 274 0 -2 -202z
m-3398 99 c0 -6 88 -304 183 -617 102 -338 124 -413 216 -760 99 -371 161
-625 161 -656 0 -12 -30 -14 -202 -12 l-202 3 -17 57 c-9 32 -47 179 -84 328
l-67 270 -204 0 -204 0 0 -45 0 -45 -195 0 -194 0 5 33 c4 17 33 149 66 292
32 143 81 361 108 485 56 258 149 650 156 662 5 7 474 12 474 5z m-3283 -49
c100 -37 158 -73 228 -143 72 -72 136 -176 163 -266 49 -159 66 -309 66 -564
0 -252 -11 -353 -55 -515 -55 -203 -166 -349 -329 -429 -127 -62 -188 -72
-467 -78 l-243 -5 0 1017 0 1016 283 -3 c274 -4 284 -5 354 -30z m6471 -1311
l3 -77 -66 0 -65 0 0 70 c0 76 -2 74 75 83 48 6 50 4 53 -76z m-3480 -469 l-3
-213 -115 0 -115 0 1 33 c0 17 1 113 2 212 l2 180 115 0 115 0 -2 -212z m192
155 c12 -32 43 -127 69 -213 l48 -155 -85 -3 c-46 -2 -85 -2 -86 0 -1 2 0 99
2 216 4 235 13 260 52 155z m1209 -83 c34 -61 61 -114 61 -119 0 -4 -29 -8
-64 -9 l-65 -2 -3 120 c-2 66 0 120 3 120 4 0 34 -50 68 -110z"/>
<path d="M2500 8755 c7 -9 15 -13 17 -11 7 7 -7 26 -19 26 -6 0 -6 -6 2 -15z"/>
<path d="M2565 8590 c-3 -6 1 -7 9 -4 18 7 21 14 7 14 -6 0 -13 -4 -16 -10z"/>
<path d="M2695 8520 c3 -5 8 -10 11 -10 2 0 4 5 4 10 0 6 -5 10 -11 10 -5 0
-7 -4 -4 -10z"/>
<path d="M2850 8420 c-9 -6 -10 -10 -3 -10 6 0 15 5 18 10 8 12 4 12 -15 0z"/>
<path d="M3045 8250 c-3 -6 1 -7 9 -4 18 7 21 14 7 14 -6 0 -13 -4 -16 -10z"/>
<path d="M3138 8218 c8 -8 9 -15 1 -25 -14 -16 2 -18 18 -2 9 9 8 15 -2 25 -7
8 -17 14 -21 14 -5 0 -3 -5 4 -12z"/>
<path d="M2141 8194 c0 -11 3 -14 6 -6 3 7 2 16 -1 19 -3 4 -6 -2 -5 -13z"/>
<path d="M3170 8180 c-13 -8 -13 -10 1 -10 9 0 28 -11 43 -25 36 -33 42 -32
16 5 -12 17 -25 28 -30 25 -5 -3 -10 -1 -12 5 -2 6 -8 6 -18 0z"/>
<path d="M2170 8071 c0 -6 4 -13 10 -16 6 -3 7 1 4 9 -7 18 -14 21 -14 7z"/>
<path d="M3300 8020 c0 -6 7 -10 15 -10 8 0 15 2 15 4 0 2 -7 6 -15 10 -8 3
-15 1 -15 -4z"/>
<path d="M3310 7910 c-13 -8 -13 -10 2 -10 9 0 20 5 23 10 8 13 -5 13 -25 0z"/>
<path d="M3280 7878 c0 -11 32 -10 48 1 9 5 3 8 -17 7 -17 -1 -31 -4 -31 -8z"/>
<path d="M3145 7820 c-3 -6 1 -7 9 -4 18 7 21 14 7 14 -6 0 -13 -4 -16 -10z"/>
<path d="M2285 7809 c-4 -6 -5 -12 -2 -15 2 -3 7 2 10 11 7 17 1 20 -8 4z"/>
<path d="M3164 7789 c-19 -22 -19 -22 4 -8 12 8 22 17 22 21 0 12 -6 9 -26
-13z"/>
<path d="M3120 7789 c0 -5 5 -7 10 -4 6 3 10 8 10 11 0 2 -4 4 -10 4 -5 0 -10
-5 -10 -11z"/>
<path d="M3040 7739 c0 -5 5 -7 10 -4 6 3 10 8 10 11 0 2 -4 4 -10 4 -5 0 -10
-5 -10 -11z"/>
<path d="M2811 7606 c-10 -12 -8 -13 8 -9 12 3 18 9 15 14 -7 12 -10 11 -23
-5z"/>
<path d="M2645 7460 c3 -5 8 -10 11 -10 2 0 4 5 4 10 0 6 -5 10 -11 10 -5 0
-7 -4 -4 -10z"/>
<path d="M2569 7420 c5 -8 10 -21 12 -28 3 -9 13 -4 30 16 l26 29 -38 -1 c-30
0 -36 -3 -30 -16z m31 0 c0 -5 -4 -10 -10 -10 -5 0 -10 5 -10 10 0 6 5 10 10
10 6 0 10 -4 10 -10z"/>
<path d="M2555 7360 c-4 -6 -11 -8 -16 -5 -5 4 -9 2 -9 -4 0 -18 15 -18 33 1
9 10 13 18 8 18 -6 0 -13 -5 -16 -10z"/>
<path d="M3007 2609 c-24 -14 -52 -73 -68 -144 -22 -95 -19 -862 4 -968 19
-92 46 -140 86 -157 36 -14 60 -4 95 43 63 83 81 250 73 674 -7 389 -23 474
-97 537 -33 27 -63 32 -93 15z"/>
<path d="M6200 2280 c0 -354 -4 -335 65 -306 53 22 130 101 154 156 43 100 36
222 -20 332 -39 78 -114 138 -174 138 l-25 0 0 -320z"/>
<path d="M5116 2290 c-15 -67 -106 -553 -106 -566 0 -11 23 -14 125 -14 118 0
125 1 125 20 0 11 -18 95 -39 187 -21 93 -49 213 -61 268 -26 118 -36 141 -44
105z"/>
<path d="M1850 1805 l0 -605 38 0 c61 0 124 46 158 117 l29 58 3 380 c4 395
-1 463 -38 535 -31 60 -80 94 -162 114 l-28 6 0 -605z"/>
<path d="M5541 7371 c-10 -7 -7 -9 12 -8 14 1 23 5 20 10 -6 9 -15 9 -32 -2z"/>
<path d="M4265 7312 c-6 -4 -11 -18 -12 -32 -1 -14 1 -19 4 -12 7 19 21 14 26
-10 l4 -23 2 23 c0 12 -6 25 -14 28 -8 4 -12 10 -9 15 3 5 17 1 32 -8 l27 -17
-19 22 c-21 24 -26 26 -41 14z"/>
<path d="M4340 7241 c0 -5 5 -13 10 -16 6 -3 10 -2 10 4 0 5 -4 13 -10 16 -5
3 -10 2 -10 -4z"/>
<path d="M3954 7218 l-19 -23 22 18 c12 11 27 16 34 11 8 -4 10 -3 5 4 -10 17
-21 15 -42 -10z"/>
<path d="M4298 7215 c-3 -14 -1 -28 3 -31 5 -3 9 9 9 25 0 38 -6 40 -12 6z"/>
<path d="M4323 7218 c1 -15 5 -24 9 -22 4 3 8 -2 8 -10 0 -9 5 -16 10 -16 13
0 13 17 -1 25 -6 4 -14 17 -19 29 -8 19 -9 19 -7 -6z"/>
<path d="M4015 7180 c3 -5 8 -10 11 -10 2 0 4 5 4 10 0 6 -5 10 -11 10 -5 0
-7 -4 -4 -10z"/>
<path d="M4370 7173 c0 -13 5 -23 10 -23 13 0 13 11 0 30 -8 12 -10 11 -10 -7z"/>
<path d="M5381 7174 c0 -11 3 -14 6 -6 3 7 2 16 -1 19 -3 4 -6 -2 -5 -13z"/>
<path d="M4679 7063 c-1 -4 -2 -24 -4 -43 -4 -58 -24 -133 -38 -142 -9 -6 -9
-10 3 -18 13 -8 13 -11 1 -19 -8 -5 -12 -18 -8 -30 3 -14 1 -19 -6 -14 -6 4
-8 0 -4 -10 3 -10 2 -17 -3 -17 -9 0 -5 -72 12 -193 8 -59 17 -86 36 -108 34
-41 71 -37 94 11 15 32 15 43 2 120 -16 96 -22 148 -29 235 -12 164 -24 226
-43 233 -7 2 -13 0 -13 -5z"/>
<path d="M4624 7035 c-4 -14 -4 -29 0 -32 3 -4 6 4 6 16 0 17 4 22 16 17 14
-5 15 -4 4 9 -17 20 -19 19 -26 -10z"/>
<path d="M5031 7053 c-1 -6 -7 -18 -14 -25 -28 -28 -75 -170 -112 -339 l-26
-116 22 -64 c12 -35 43 -107 69 -159 59 -117 90 -216 90 -284 0 -137 -73 -234
-134 -177 l-22 21 3 -63 c6 -102 21 -146 93 -277 65 -120 89 -171 124 -271 39
-109 110 -182 329 -337 149 -106 212 -133 314 -135 40 -1 70 -4 67 -6 -3 -3
-41 -12 -84 -21 -89 -17 -106 -35 -32 -34 86 1 204 17 191 25 -17 10 -3 13
226 48 321 49 440 57 1025 71 223 5 456 14 518 21 l112 12 0 28 0 28 -197 -5
c-109 -2 -358 -6 -553 -9 -481 -6 -700 -21 -1097 -76 -146 -20 -154 -20 -205
-4 -29 10 -80 31 -112 49 l-60 31 192 17 c105 10 357 35 559 57 484 53 578 61
768 62 138 1 310 14 233 18 -15 0 -30 6 -33 11 -4 6 -29 8 -58 6 -47 -4 -50
-3 -28 8 20 11 21 14 6 19 -9 4 -24 7 -33 6 -10 -1 -7 -4 8 -9 25 -8 25 -8 -5
-10 -79 -7 -121 -7 -130 0 -10 8 -43 7 -230 -4 -51 -3 -84 -2 -77 3 10 6 8 10
-8 14 -31 8 -92 -4 -87 -17 3 -7 -12 -11 -42 -12 -25 -1 -82 -3 -126 -4 -58
-1 -74 -4 -60 -11 19 -9 19 -9 -2 -5 -12 2 -42 0 -68 -5 -25 -5 -76 -11 -113
-13 -37 -2 -107 -9 -157 -16 -49 -6 -159 -12 -242 -13 -84 -1 -153 -5 -153 -9
0 -14 -24 -8 -75 16 -56 27 -192 152 -224 206 -23 38 -27 70 -10 70 21 0 228
-64 224 -69 -2 -3 7 -6 18 -7 12 0 74 -16 137 -34 107 -31 124 -33 245 -31
219 4 253 6 249 12 -2 3 13 11 33 17 26 8 39 8 44 1 4 -7 11 -6 20 3 19 19 50
32 87 36 7 1 10 6 7 12 -4 6 1 7 11 3 12 -4 15 -3 10 5 -4 7 -1 12 7 12 7 0
28 13 47 30 18 16 35 28 38 26 4 -5 55 51 107 119 21 28 35 42 32 32 -4 -11
-3 -16 4 -12 6 4 8 14 4 22 -3 9 2 24 11 34 10 11 14 19 11 19 -4 0 3 21 14
48 19 43 31 97 43 194 12 95 99 186 206 218 36 11 76 22 90 24 32 7 182 43
238 59 23 6 42 14 42 17 -1 15 -19 32 -29 26 -6 -4 -11 -2 -11 3 0 6 -5 11
-11 11 -5 0 -8 -3 -6 -7 3 -5 -18 -7 -46 -6 -39 2 -47 0 -32 -7 28 -13 -553
-4 -627 10 -31 6 -86 12 -122 15 -68 4 -176 30 -176 43 0 4 -12 13 -27 19 -16
7 -41 25 -58 41 -16 15 -45 38 -63 51 -18 12 -30 27 -26 32 3 5 2 8 -3 7 -4
-1 -37 12 -73 29 -36 17 -84 33 -107 37 -69 10 -139 54 -198 124 -16 20 -17
25 -5 34 13 8 12 9 -2 4 -12 -3 -24 8 -43 40 -14 24 -23 49 -19 56 4 7 3 8 -5
4 -7 -5 -13 3 -17 23 -4 17 -11 31 -17 31 -7 0 -7 4 1 12 7 7 12 17 12 23 0 5
-4 4 -9 -4 -7 -11 -14 -4 -30 30 -11 24 -22 55 -25 69 -11 47 -22 56 -50 41
-14 -8 -23 -18 -20 -23 3 -4 2 -18 -2 -31 l-8 -22 -7 25 c-4 14 -5 2 -2 -27 3
-33 2 -53 -5 -53 -16 0 -25 -30 -28 -95 -1 -33 -5 -71 -7 -85 -3 -14 -8 -50
-12 -80 -3 -30 -10 -62 -16 -70 -6 -10 -8 -1 -4 30 l5 45 -10 -39 c-7 -27 -7
-43 1 -52 9 -11 8 -14 0 -14 -7 0 -9 -4 -6 -10 3 -5 0 -7 -9 -4 -11 4 -15 -1
-13 -22 1 -20 -4 -31 -20 -39 -13 -7 -21 -14 -18 -17 3 -3 -6 -13 -21 -23 -22
-14 -28 -15 -36 -4 -7 11 -11 11 -15 2 -16 -41 -126 26 -116 70 3 16 2 18 -5
8 -8 -11 -12 -10 -21 6 -5 11 -7 24 -3 28 4 5 2 5 -4 2 -7 -4 -14 0 -18 8 -3
8 -1 15 5 15 6 0 1 8 -11 18 -18 15 -23 29 -24 75 -1 31 -7 62 -14 69 -11 11
-11 8 -3 -15 14 -35 13 -61 0 -27 -5 13 -12 44 -15 68 -3 24 -9 55 -15 69 -13
35 -11 130 3 153 10 16 9 28 -5 66 -16 43 -16 49 -1 65 9 10 14 24 11 31 -4 9
-6 9 -6 1z m-2 -143 c-1 -23 -2 -22 -9 5 -4 17 -11 39 -14 50 -5 13 -2 12 8
-5 8 -14 15 -36 15 -50z m445 -144 c-3 -15 -8 -25 -11 -23 -2 3 -1 17 3 31 3
15 8 25 11 23 2 -3 1 -17 -3 -31z m972 -666 c129 -17 146 -36 124 -142 -30
-141 -123 -279 -240 -357 -103 -69 -152 -85 -270 -85 -101 -1 -108 1 -180 35
-91 44 -206 128 -242 178 -14 20 -33 59 -41 88 -21 69 -9 112 42 152 41 33
147 85 194 97 26 6 27 5 27 -33 0 -97 82 -270 175 -371 73 -79 73 -79 130 35
48 96 54 159 27 288 -21 100 -20 112 11 118 41 8 172 6 243 -3z m274 -930 c0
-5 -9 -10 -21 -10 -11 0 -17 5 -14 10 3 6 13 10 21 10 8 0 14 -4 14 -10z"/>
<path d="M3776 6952 c-13 -20 -31 -43 -40 -51 -9 -7 -16 -20 -16 -27 0 -8 -4
-14 -9 -14 -4 0 -11 -15 -14 -32 -3 -18 -11 -46 -18 -63 -7 -16 -13 -34 -14
-40 -1 -19 -28 -75 -35 -75 -5 0 -6 -10 -2 -22 4 -15 2 -19 -8 -13 -8 5 -11 3
-8 -6 13 -35 -118 -224 -147 -213 -7 3 -16 1 -20 -5 -4 -7 1 -8 12 -4 16 6 16
5 4 -11 -8 -10 -23 -15 -33 -13 -10 3 -16 1 -13 -3 6 -10 -34 -35 -42 -27 -2
3 -21 -2 -41 -10 -55 -23 -398 -19 -437 5 -5 4 -19 8 -30 10 -11 1 -38 7 -59
13 -30 8 -36 13 -25 21 10 7 9 8 -7 3 -21 -5 -90 25 -141 61 -22 16 -23 16
-23 -16 0 -30 2 -32 26 -26 16 4 23 3 19 -3 -9 -16 16 -49 47 -62 15 -6 25
-15 22 -20 -3 -5 -2 -8 3 -7 14 5 73 -24 68 -32 -3 -5 0 -12 6 -16 8 -4 9 -3
5 4 -11 17 -1 15 57 -15 29 -14 46 -28 40 -30 -7 -3 -13 -9 -13 -14 0 -6 5 -7
10 -4 6 3 10 1 10 -4 0 -6 -6 -11 -12 -11 -10 0 -9 -3 1 -9 9 -6 11 -16 5 -32
-9 -30 -12 -243 -3 -227 6 9 23 -38 24 -67 0 -5 2 -12 5 -15 6 -5 32 -60 36
-72 1 -5 3 -11 4 -15 1 -5 1 -12 0 -18 -1 -5 2 -7 6 -3 9 9 77 -89 70 -100 -3
-4 0 -14 6 -22 8 -12 9 -11 4 4 -5 16 -4 17 8 7 8 -7 12 -19 9 -27 -4 -10 0
-12 13 -7 14 5 16 3 11 -11 -5 -13 -3 -17 6 -13 14 5 76 -45 96 -78 8 -13 11
-14 7 -3 -4 13 4 11 39 -10 23 -15 41 -31 38 -35 -3 -5 1 -7 8 -6 8 2 36 -3
62 -11 37 -11 44 -16 30 -22 -12 -5 -4 -7 22 -6 80 3 116 -2 109 -14 -5 -8 -2
-9 12 -3 10 5 52 11 92 13 40 2 70 7 67 11 -2 5 30 14 73 20 42 7 87 17 99 23
45 22 47 2 3 -44 -24 -27 -49 -44 -57 -41 -9 4 -11 0 -7 -11 4 -11 -3 -19 -21
-28 -15 -7 -41 -25 -58 -40 -29 -28 -30 -28 -51 -11 -20 17 -20 17 -6 -1 13
-16 12 -20 -5 -32 -10 -8 -25 -14 -32 -14 -7 0 -13 -5 -13 -11 0 -5 -4 -7 -10
-4 -5 3 -10 1 -10 -5 0 -7 -7 -9 -16 -6 -8 3 -13 2 -10 -3 6 -10 -64 -41 -92
-41 -10 0 -22 -4 -27 -9 -18 -17 -85 -31 -85 -18 0 8 -4 7 -9 -2 -5 -8 -16
-11 -25 -8 -9 4 -67 9 -128 12 -62 4 -116 9 -121 12 -31 19 -427 14 -427 -6 0
-3 69 -8 153 -9 83 -2 199 -8 257 -13 58 -5 218 -15 355 -21 138 -5 252 -12
254 -14 3 -3 -4 -13 -15 -24 -16 -17 -24 -18 -49 -10 -56 20 -688 59 -1150 73
-311 9 58 -31 630 -68 209 -13 422 -27 473 -31 50 -3 92 -10 92 -14 0 -5 -6
-15 -14 -22 -12 -12 -30 -12 -117 -2 -329 40 -965 61 -2132 70 l-887 6 0
-1020 c0 -562 4 -1023 8 -1026 4 -2 45 38 92 90 146 164 738 741 1000 975 286
256 399 339 590 432 80 39 159 83 177 98 63 54 209 92 613 158 377 62 443 71
531 71 75 0 145 22 133 41 -5 9 -63 10 -225 5 -350 -11 -766 -64 -874 -111
-16 -7 -50 -19 -75 -25 -67 -18 -170 -61 -170 -71 0 -15 -176 -99 -325 -155
-195 -73 -322 -125 -605 -249 -135 -58 -252 -108 -260 -111 -9 -3 -22 7 -33
27 -17 31 -17 32 4 55 35 38 513 239 854 359 150 53 355 131 360 137 1 2 -5
34 -13 72 l-15 68 -46 -5 c-464 -59 -907 -125 -1191 -178 l-165 -31 -33 38
-33 38 23 9 c35 13 442 93 618 121 281 46 506 69 685 70 l120 1 -3 28 -3 27
248 0 c136 0 320 -7 408 -15 88 -8 268 -17 400 -20 132 -3 275 -11 318 -17
l78 -11 27 31 c15 17 72 72 127 122 137 125 251 268 325 411 48 94 70 125 114
163 36 31 60 61 71 90 16 42 16 46 -10 142 -46 169 -24 316 68 442 97 132 112
246 64 477 -8 39 -18 88 -22 110 l-7 40 -24 -69 c-12 -38 -27 -72 -31 -75 -4
-3 -9 -13 -11 -21 -7 -35 -129 -286 -154 -317 -6 -7 -14 -10 -19 -7 -5 3 -7
-1 -4 -8 3 -7 -5 -24 -17 -38 -13 -14 -18 -19 -13 -10 9 13 8 13 -7 1 -10 -7
-16 -17 -13 -21 6 -10 -83 -90 -100 -90 -41 0 -108 100 -148 220 -18 55 -46
231 -51 325 -7 117 -16 155 -37 155 -11 0 -29 -16 -43 -38z m-561 -753 c55 -6
103 -14 107 -18 4 -4 3 -46 -3 -93 -13 -105 -2 -177 41 -263 37 -76 71 -110
102 -102 50 13 168 227 184 333 8 54 23 63 70 41 91 -44 167 -152 166 -235 -3
-104 -128 -205 -287 -231 -129 -20 -291 43 -400 157 -97 100 -170 299 -145
392 10 38 14 41 38 36 15 -3 72 -10 127 -17z"/>
<path d="M5582 6946 c7 -8 15 -12 17 -11 5 6 -10 25 -20 25 -5 0 -4 -6 3 -14z"/>
<path d="M4590 6931 c0 -25 6 -27 13 -6 4 8 2 17 -3 20 -6 4 -10 -3 -10 -14z"/>
<path d="M5132 6875 c0 -16 2 -22 5 -12 2 9 2 23 0 30 -3 6 -5 -1 -5 -18z"/>
<path d="M4602 6838 c-1 -33 1 -38 8 -23 11 26 12 65 2 65 -4 0 -9 -19 -10
-42z"/>
<path d="M4751 6864 c0 -11 3 -14 6 -6 3 7 2 16 -1 19 -3 4 -6 -2 -5 -13z"/>
<path d="M3065 6850 c-3 -5 -1 -10 4 -10 6 0 11 5 11 10 0 6 -2 10 -4 10 -3 0
-8 -4 -11 -10z"/>
<path d="M5620 6840 c0 -5 5 -10 11 -10 5 0 7 5 4 10 -3 6 -8 10 -11 10 -2 0
-4 -4 -4 -10z"/>
<path d="M5033 6800 c0 -25 2 -35 4 -22 2 12 2 32 0 45 -2 12 -4 2 -4 -23z"/>
<path d="M6470 6830 c-8 -5 -10 -10 -5 -10 6 0 17 5 25 10 8 5 11 10 5 10 -5
0 -17 -5 -25 -10z"/>
<path d="M4752 6775 c0 -16 2 -22 5 -12 2 9 2 23 0 30 -3 6 -5 -1 -5 -18z"/>
<path d="M4770 6789 c0 -5 5 -7 10 -4 6 3 10 8 10 11 0 2 -4 4 -10 4 -5 0 -10
-5 -10 -11z"/>
<path d="M5141 6784 c0 -11 3 -14 6 -6 3 7 2 16 -1 19 -3 4 -6 -2 -5 -13z"/>
<path d="M5131 6723 c0 -4 4 -17 9 -28 8 -19 9 -19 9 2 1 12 -3 25 -9 28 -5 3
-10 3 -9 -2z"/>
<path d="M4801 6664 c0 -11 3 -14 6 -6 3 7 2 16 -1 19 -3 4 -6 -2 -5 -13z"/>
<path d="M5352 6660 c0 -14 2 -19 5 -12 2 6 2 18 0 25 -3 6 -5 1 -5 -13z"/>
<path d="M5706 6665 c4 -8 8 -15 10 -15 2 0 4 7 4 15 0 8 -4 15 -10 15 -5 0
-7 -7 -4 -15z"/>
<path d="M4281 6624 c0 -11 3 -14 6 -6 3 7 2 16 -1 19 -3 4 -6 -2 -5 -13z"/>
<path d="M5091 6624 c0 -11 3 -14 6 -6 3 7 2 16 -1 19 -3 4 -6 -2 -5 -13z"/>
<path d="M5210 6596 c0 -2 8 -10 18 -17 15 -13 16 -12 3 4 -13 16 -21 21 -21
13z"/>
<path d="M5095 6570 c-3 -5 -3 -10 2 -10 4 0 2 -4 -5 -8 -17 -11 -4 -42 17
-42 12 0 13 2 3 9 -9 5 -11 17 -6 34 6 27 1 36 -11 17z"/>
<path d="M5380 6530 c0 -16 2 -30 4 -30 2 0 6 14 8 30 3 17 1 30 -4 30 -4 0
-8 -13 -8 -30z"/>
<path d="M3523 6469 c-2 -23 3 -25 10 -4 4 8 3 16 -1 19 -4 3 -9 -4 -9 -15z"/>
<path d="M5365 6470 c-3 -5 -1 -10 4 -10 6 0 11 5 11 10 0 6 -2 10 -4 10 -3 0
-8 -4 -11 -10z"/>
<path d="M5181 6424 c0 -11 3 -14 6 -6 3 7 2 16 -1 19 -3 4 -6 -2 -5 -13z"/>
<path d="M5355 6400 c-16 -7 -17 -9 -3 -9 9 -1 20 4 23 9 7 11 7 11 -20 0z"/>
<path d="M5196 6367 c3 -10 9 -15 12 -12 3 3 0 11 -7 18 -10 9 -11 8 -5 -6z"/>
<path d="M5310 6365 c-7 -9 -8 -15 -2 -15 5 0 12 7 16 15 3 8 4 15 2 15 -2 0
-9 -7 -16 -15z"/>
<path d="M7128 6183 c6 -2 18 -2 25 0 6 3 1 5 -13 5 -14 0 -19 -2 -12 -5z"/>
<path d="M7565 5810 c3 -5 8 -10 11 -10 2 0 4 5 4 10 0 6 -5 10 -11 10 -5 0
-7 -4 -4 -10z"/>
<path d="M3000 5655 c0 -8 4 -15 10 -15 5 0 7 7 4 15 -4 8 -8 15 -10 15 -2 0
-4 -7 -4 -15z"/>
<path d="M2971 5644 c0 -11 3 -14 6 -6 3 7 2 16 -1 19 -3 4 -6 -2 -5 -13z"/>
<path d="M7611 5634 c0 -11 3 -14 6 -6 3 7 2 16 -1 19 -3 4 -6 -2 -5 -13z"/>
<path d="M7622 5570 c0 -14 2 -19 5 -12 2 6 2 18 0 25 -3 6 -5 1 -5 -13z"/>
<path d="M7643 5500 c0 -36 2 -50 4 -32 2 17 2 47 0 65 -2 17 -4 3 -4 -33z"/>
<path d="M3100 5530 c-8 -5 -10 -10 -5 -10 6 0 17 5 25 10 8 5 11 10 5 10 -5
0 -17 -5 -25 -10z"/>
<path d="M6620 5445 c-7 -9 -8 -15 -2 -15 5 0 12 7 16 15 3 8 4 15 2 15 -2 0
-9 -7 -16 -15z"/>
<path d="M7607 5453 c-3 -5 -1 -17 4 -28 7 -17 8 -17 8 8 1 27 -4 34 -12 20z"/>
<path d="M3859 5413 c-13 -16 -12 -17 4 -4 16 13 21 21 13 21 -2 0 -10 -8 -17
-17z"/>
<path d="M6600 5413 c0 -6 8 -17 18 -24 16 -13 16 -13 2 6 -8 11 -16 22 -17
24 -2 2 -3 0 -3 -6z"/>
<path d="M3324 5402 c3 -5 0 -13 -6 -15 -9 -4 -10 -6 -1 -6 17 -1 25 16 12 25
-7 4 -9 3 -5 -4z"/>
<path d="M3788 5383 c6 -2 18 -2 25 0 6 3 1 5 -13 5 -14 0 -19 -2 -12 -5z"/>
<path d="M3330 5370 c-8 -5 -10 -10 -5 -10 6 0 17 5 25 10 8 5 11 10 5 10 -5
0 -17 -5 -25 -10z"/>
<path d="M6530 5360 c-9 -6 -10 -10 -3 -10 6 0 15 5 18 10 8 12 4 12 -15 0z"/>
<path d="M7600 5345 c0 -8 2 -15 4 -15 2 0 6 7 10 15 3 8 1 15 -4 15 -6 0 -10
-7 -10 -15z"/>
<path d="M6480 5310 c-9 -6 -10 -10 -3 -10 6 0 15 5 18 10 8 12 4 12 -15 0z"/>
<path d="M6530 5300 c0 -5 5 -10 11 -10 5 0 7 5 4 10 -3 6 -8 10 -11 10 -2 0
-4 -4 -4 -10z"/>
<path d="M7602 5280 c0 -14 2 -19 5 -12 2 6 2 18 0 25 -3 6 -5 1 -5 -13z"/>
<path d="M7626 5277 c3 -10 9 -15 12 -12 3 3 0 11 -7 18 -10 9 -11 8 -5 -6z"/>
<path d="M3630 5240 c0 -5 5 -10 11 -10 5 0 7 5 4 10 -3 6 -8 10 -11 10 -2 0
-4 -4 -4 -10z"/>
<path d="M6278 5243 c6 -2 18 -2 25 0 6 3 1 5 -13 5 -14 0 -19 -2 -12 -5z"/>
<path d="M7622 5230 c0 -14 2 -19 5 -12 2 6 2 18 0 25 -3 6 -5 1 -5 -13z"/>
<path d="M5788 5233 c7 -3 16 -2 19 1 4 3 -2 6 -13 5 -11 0 -14 -3 -6 -6z"/>
<path d="M5838 5218 c5 -5 16 -8 23 -6 8 3 3 7 -10 11 -17 4 -21 3 -13 -5z"/>
<path d="M7601 5214 c0 -11 3 -14 6 -6 3 7 2 16 -1 19 -3 4 -6 -2 -5 -13z"/>
<path d="M2680 5186 c0 -3 9 -10 20 -16 11 -6 20 -8 20 -6 0 3 -9 10 -20 16
-11 6 -20 8 -20 6z"/>
<path d="M6888 5183 c7 -3 16 -2 19 1 4 3 -2 6 -13 5 -11 0 -14 -3 -6 -6z"/>
<path d="M4886 5165 c-9 -9 -16 -33 -16 -53 0 -51 -12 -67 -38 -53 -58 31
-199 -4 -226 -57 -19 -37 -48 -62 -79 -67 -20 -4 -39 7 -92 56 -62 56 -150
109 -183 109 -7 0 -18 11 -24 25 -15 34 -36 32 -40 -4 l-3 -28 -53 13 c-30 8
-58 12 -62 9 -13 -8 10 -67 38 -97 25 -27 36 -31 134 -43 52 -7 138 -66 162
-113 12 -24 12 -31 -5 -64 -15 -29 -17 -43 -9 -57 5 -11 10 -26 9 -33 0 -7 -5
0 -11 15 l-10 28 -44 -43 c-31 -30 -40 -45 -31 -51 8 -6 5 -7 -7 -3 -10 4 -24
2 -30 -3 -6 -5 -44 -21 -85 -35 -105 -38 -207 -100 -276 -170 -71 -71 -92
-109 -134 -241 -18 -53 -45 -126 -61 -161 -17 -35 -30 -75 -30 -89 0 -30 -1
-30 -49 -5 -50 25 -126 110 -162 182 -16 32 -40 65 -54 74 -14 9 -28 26 -31
39 -7 30 30 138 72 207 34 55 43 88 25 88 -5 0 -36 -26 -69 -57 -45 -43 -65
-73 -81 -116 -22 -61 -28 -167 -12 -223 6 -23 5 -31 -4 -31 -7 0 -11 6 -8 13
2 6 -11 29 -29 50 -31 35 -33 42 -33 113 0 42 4 89 8 104 6 22 5 28 -5 25 -35
-12 -78 -142 -76 -233 1 -89 9 -106 53 -122 22 -7 45 -11 52 -9 7 3 13 1 13
-3 0 -5 17 -12 38 -16 31 -5 49 -18 92 -67 57 -64 101 -90 189 -109 71 -15
105 -6 98 27 -4 20 -1 24 12 18 53 -22 89 -33 115 -34 l28 0 -36 40 c-46 51
-47 89 -6 202 86 236 253 401 461 454 167 43 517 -37 719 -163 94 -59 215
-187 297 -313 43 -66 106 -145 147 -186 92 -92 140 -108 296 -102 90 3 113 8
157 31 29 15 76 36 105 47 107 40 211 139 243 230 20 56 19 86 -4 137 -17 37
-65 82 -76 71 -2 -2 5 -33 16 -68 32 -104 9 -173 -88 -259 -58 -52 -94 -70
-56 -28 42 46 76 129 76 188 0 79 -32 140 -117 222 -63 61 -68 67 -44 67 14 0
68 -20 121 -44 171 -80 412 -257 599 -442 l116 -115 38 19 37 19 -118 122
c-129 133 -246 235 -340 298 -87 58 -558 274 -570 261 -11 -10 70 -155 112
-202 86 -95 102 -165 57 -254 -51 -103 -181 -187 -291 -187 -87 0 -123 29
-261 211 -62 82 -153 193 -202 246 -128 138 -198 181 -436 272 -82 31 -120 66
-138 128 -32 103 37 157 262 204 130 28 162 43 162 78 0 26 -17 36 -61 36 -24
0 -29 4 -29 24 0 28 -24 56 -48 56 -9 0 -26 3 -38 6 -13 3 -28 -1 -38 -11z
m-349 -411 c-3 -3 -12 -4 -19 -1 -8 3 -5 6 6 6 11 1 17 -2 13 -5z m133 -30 c0
-8 -19 -13 -24 -6 -3 5 1 9 9 9 8 0 15 -2 15 -3z m-303 -26 c-3 -8 -6 -5 -6 6
-1 11 2 17 5 13 3 -3 4 -12 1 -19z m337 -17 c3 -5 -1 -14 -8 -20 -12 -10 -13
-8 -9 8 6 23 9 25 17 12z m-53 -34 c-10 -9 -11 -8 -5 6 3 10 9 15 12 12 3 -3
0 -11 -7 -18z m-1430 -351 c-14 -36 -22 -33 -9 5 6 16 12 28 14 26 3 -2 0 -16
-5 -31z m70 -219 c-10 -9 -11 -8 -5 6 3 10 9 15 12 12 3 -3 0 -11 -7 -18z m47
-12 c-3 -3 -9 2 -12 12 -6 14 -5 15 5 6 7 -7 10 -15 7 -18z"/>
<path d="M7298 5173 c12 -2 32 -2 45 0 12 2 2 4 -23 4 -25 0 -35 -2 -22 -4z"/>
<path d="M7428 5173 c7 -3 16 -2 19 1 4 3 -2 6 -13 5 -11 0 -14 -3 -6 -6z"/>
<path d="M7589 5172 c11 -8 10 -11 -5 -14 -17 -3 -17 -4 2 -10 16 -4 21 -1 20
10 -2 9 -9 18 -17 20 -12 3 -12 2 0 -6z"/>
<path d="M7458 5153 c12 -2 32 -2 45 0 12 2 2 4 -23 4 -25 0 -35 -2 -22 -4z"/>
<path d="M5740 5100 c34 -11 60 -11 35 0 -11 5 -29 8 -40 8 -16 0 -15 -2 5 -8z"/>
<path d="M3430 4756 c-133 -29 -160 -40 -160 -65 0 -23 -20 -32 -85 -36 -50
-4 -382 -94 -440 -120 -16 -7 -68 -27 -115 -43 -165 -59 -182 -69 -154 -96 23
-23 50 -20 161 18 54 19 181 59 283 91 102 31 230 77 285 102 55 25 156 63
225 85 145 46 155 50 155 69 0 21 -40 20 -155 -5z"/>
<path d="M3429 4619 c-190 -92 -191 -92 -209 -81 -15 9 -38 -3 -133 -67 -192
-130 -297 -222 -297 -261 0 -24 143 41 260 117 41 27 109 69 150 93 41 24 113
69 160 100 47 32 104 69 128 84 23 14 42 33 42 41 0 21 -6 20 -101 -26z"/>
<path d="M6046 4601 c20 -20 278 -201 286 -201 4 0 8 9 8 20 0 11 3 20 7 20 4
0 52 -19 107 -42 56 -22 208 -78 339 -123 146 -51 261 -97 298 -120 49 -30 62
-35 75 -24 29 24 11 52 -61 96 -101 61 -197 100 -590 235 -408 141 -500 168
-469 139z"/>
<path d="M3825 3850 c3 -5 13 -10 21 -10 8 0 12 5 9 10 -3 6 -13 10 -21 10 -8
0 -12 -4 -9 -10z"/>
<path d="M3968 3791 c133 -116 359 -203 603 -232 188 -22 404 5 605 75 105 37
246 100 204 92 -14 -3 -77 -12 -140 -20 -63 -9 -158 -25 -210 -36 -194 -43
-415 -42 -646 5 -163 32 -268 65 -368 116 -43 21 -81 39 -85 39 -3 -1 13 -18
37 -39z"/>
<path d="M5340 3790 c-11 -7 -7 -10 18 -10 17 0 32 5 32 10 0 13 -30 13 -50 0z"/>
<path d="M5284 3764 c-18 -14 -18 -14 6 -3 31 14 36 19 24 19 -6 0 -19 -7 -30
-16z"/>
</g>
</svg>
